# xmcd
#
# Track frame offsets:
#	150
#	15799
#	32131
#	48030
#	64995
#	82871
#	100871
#	118032
#	136200
#	156322
#
# Disc length: 2294 seconds
#
# Revision: 0
# Processed by: cddbd v1.5.2PL0 Copyright (c) Steve Scherf et al.
# Submitted via: dBpowerAMP V4.0
#
DISCID=7108f40a
DTITLE=Isaacs - Big Sky
DYEAR=1900
DGENRE=
TTITLE0=Big Sky
TTITLE1=Through the Valley
TTITLE2=The One I'm Dying For
TTITLE3=I Bring It To You
TTITLE4=Barbie Bandaids
TTITLE5=Love Is a Cross You Bear
TTITLE6=Walk On
TTITLE7=That's Alright By Me
TTITLE8=When A Broken Heart Heals
TTITLE9=Umbrella
EXTD=Great Christian Bluegrass - Southern Gospel from The Isaacs
EXTT0=
EXTT1=
EXTT2=
EXTT3=
EXTT4=
EXTT5=
EXTT6=
EXTT7=
EXTT8=
EXTT9=
PLAYORDER=
